HIERARCHY
ROOT Hips
{
  OFFSET -114.312 89.4271 -51.7606
  CHANNELS 6 Xposition Yposition Zposition Zrotation Xrotation Yrotation
  JOINT RightUpLeg
  {
    OFFSET -8.9458 -8.66707 0.101652
    CHANNELS 3 Zrotation Xrotation Yrotation
    JOINT RightLeg
    {
      OFFSET 0 -44.4227 1.3727
      CHANNELS 3 Zrotation Xrotation Yrotation
      JOINT RightFoot
      {
        OFFSET 0.253549 -42.0924 -1.46059
        CHANNELS 3 Zrotation Xrotation Yrotation
        JOINT RightToes
        {
          OFFSET 0.04 -4.41509 8.4991
          CHANNELS 3 Zrotation Xrotation Yrotation
          End Site
          {
            OFFSET -0.08 -0.137448 9.77979
          }
        }
      }
    }
  }
  JOINT Spine
  {
    OFFSET 0 11.8905 0
    CHANNELS 3 Zrotation Xrotation Yrotation
    JOINT Spine1
    {
      OFFSET 0 25.6574 0.127663
      CHANNELS 3 Zrotation Xrotation Yrotation
      JOINT HEad
      {
        OFFSET 0 8.73416 0.011341
        CHANNELS 3 Zrotation Xrotation Yrotation
        End Site
        {
          OFFSET -0.29 12.7742 2.51395
        }
      }
      JOINT LeftShoulder1
      {
        OFFSET 8.99 -0.362252 -0.22
        CHANNELS 3 Zrotation Xrotation Yrotation
        JOINT LeftArm
        {
          OFFSET 10.2827 -0.00338 0.322123
          CHANNELS 3 Zrotation Xrotation Yrotation
          JOINT LeftForeArm
          {
            OFFSET 32.7669 0.099144 -1.42434
            CHANNELS 3 Zrotation Xrotation Yrotation
            JOINT LeftHand
            {
              OFFSET 27.5643 0.085362 1.02216
              CHANNELS 3 Zrotation Xrotation Yrotation
              End Site
              {
                OFFSET 16.7443 -0.6 1.50291
              }
            }
          }
        }
      }
      JOINT RightShoulder
      {
        OFFSET -8.99 -0.362252 -0.22
        CHANNELS 3 Zrotation Xrotation Yrotation
        JOINT RightArm
        {
          OFFSET -10.2827 -0.00338 0.322123
          CHANNELS 3 Zrotation Xrotation Yrotation
          JOINT RightForeArm
          {
            OFFSET -32.8971 0.099144 -1.42434
            CHANNELS 3 Zrotation Xrotation Yrotation
            JOINT RightHand
            {
              OFFSET -27.4921 0.085362 1.02216
              CHANNELS 3 Zrotation Xrotation Yrotation
              End Site
              {
                OFFSET -16.6312 -0.6 1.50291
              }
            }
          }
        }
      }
    }
  }
  JOINT LeftUpLeg
  {
    OFFSET 8.9458 -8.66707 0.101652
    CHANNELS 3 Zrotation Xrotation Yrotation
    JOINT LeftLeg
    {
      OFFSET 0 -44.4227 1.3727
      CHANNELS 3 Zrotation Xrotation Yrotation
      JOINT LeftFoot
      {
        OFFSET -0.253549 -42.0924 -1.46059
        CHANNELS 3 Zrotation Xrotation Yrotation
        JOINT LeftToes
        {
          OFFSET -0.04 -4.41509 8.4991
          CHANNELS 3 Zrotation Xrotation Yrotation
          End Site
          {
            OFFSET 0.08 -0.047448 9.77979
          }
        }
      }
    }
  }
}
MOTION
Frames:	14
Frame Time:	0.0166667
-115.082 90.2919 -38.3578 -1.82743 -10.3982 -5.70303 -7.62078 15.5602 10.2766 12.9373 30.6314 -12.0215 7.08543 -15.0504 0.245093 -15.9246 -16.3961 -6.69911 -1.33959 11.4638 11.5735 -7.359 22.4885 24.1661 5.14724 -15.4199 -16.7529 1.59028e-015 0 -0 -59.4497 -9.48774 -35.4016 -7.65767 28.3516 -104.443 12.8729 7.89577 -14.5443 -10.9063 -1.21457 23.9251 24.3874 -32.9407 46.3611 -19.7766 -7.86965 21.502 23.8397 10.343 -2.25735 16.1528 -19.1695 1.41949 0.788053 21.3454 -23.8702 -14.3054 9.91616 2.12006 -3.94698 -13.8783 -4.89881 
-115.318 90.1375 -38.8544 -2.64329 -10.0539 -5.52847 -6.75678 13.5282 10.6499 14.0588 33.3386 -11.5058 7.58396 -14.1446 0.222303 -17.1757 -17.4396 -7.06448 -1.47924 11.8367 10.75 -6.80417 23.2846 22.3147 4.80814 -17.3478 -14.7432 3.18055e-015 -3.18055e-015 -0 -60.6312 -13.7292 -38.2726 -5.55475 29.3542 -107.101 15.6437 7.84749 -11.4248 -5.87638 -0.0712278 24.6671 38.442 -47.0925 55.5987 -13.1222 10.1759 37.7835 18.1495 10.6032 -0.0285614 16.9111 -20.17 1.68755 1.42245 21.8015 -24.282 -14.4774 10.2447 2.18607 -3.9366 -13.8032 -5.15239 
-115.43 89.9421 -39.3598 -3.48968 -9.72773 -6.29231 -6.57616 11.0646 10.3177 14.959 36.6349 -10.0237 7.71346 -12.2633 0.112518 -19.4037 -19.2427 -7.59589 -1.67822 12.2441 10.1269 -6.35913 24.1005 20.8816 4.29766 -19.1032 -12.4087 -1.59028e-015 3.18055e-015 -6.36111e-015 -62.916 -17.8514 -41.8205 -3.95051 30.5487 -108.965 18.0058 8.00494 -8.23651 -0.638074 1.18831 25.3536 67.8689 -60.1561 79.6578 -2.27831 36.5358 55.1057 10.0331 9.50135 -8.61733 18.0611 -20.973 1.42567 1.36945 22.6595 -23.1526 -14.5456 10.3742 2.21243 -3.98769 -13.9201 -5.40133 
-115.48 89.658 -39.8144 -4.23773 -9.46244 -7.59602 -6.95299 8.49302 9.19054 15.3092 40.2577 -8.55028 7.53188 -9.3694 -0.069336 -22.845 -21.9197 -8.46811 -1.87982 12.6381 9.60649 -6.01472 24.8691 19.7049 3.90108 -20.6497 -9.82825 -1.59028e-015 3.18055e-015 6.36111e-015 -66.2616 -21.5289 -46.11 -2.96486 31.9187 -109.661 19.5757 8.29235 -5.44822 4.87061 2.55166 25.6643 111.226 -62.3832 117.364 14.2798 65.7813 63.2957 2.72631 9.43096 -20.0054 19.4341 -21.6436 0.921222 0.733818 23.9074 -21.116 -14.5601 10.4901 2.22869 -4.22145 -14.5607 -5.83734 
-115.495 89.2308 -40.2203 -4.88983 -9.46944 -9.05841 -7.76875 6.21489 7.67764 15.2513 43.9027 -8.44405 7.26652 -5.56064 -0.292024 -27.5379 -25.3479 -9.92268 -2.02039 13.0444 9.09306 -5.68698 25.6609 18.5934 3.80828 -21.9313 -7.15395 1.59028e-015 3.18055e-015 3.18055e-015 -70.555 -24.66 -51.1229 -2.67391 33.5511 -108.998 20.2109 8.59182 -3.37232 10.7385 3.98241 25.5282 104.113 -62.486 108.651 13.9218 66.5214 77.8786 4.28431 8.83117 -28.6953 20.866 -22.1484 0.493503 -0.237072 25.545 -18.9071 -14.5349 10.7599 2.25714 -4.74755 -15.965 -6.69271 
-115.479 88.6161 -40.6176 -5.55429 -9.9639 -10.4597 -8.96075 4.57097 6.52073 15.5563 47.3103 -10.7419 6.92755 -1.43671 -0.508398 -32.4959 -28.6535 -11.8602 -2.076 13.5244 8.54427 -5.25773 26.5985 17.4223 4.04236 -22.9364 -4.5962 0 3.18055e-015 -0 -75.5987 -27.2283 -56.7036 -3.11713 35.5163 -107.008 20.0474 8.81201 -2.13483 16.881 5.41594 25.0478 91.6699 -62.6765 94.8108 14.5887 65.2548 88.5901 5.41748 8.32968 -33.3099 22.2865 -22.4215 0.444098 -1.23026 27.6073 -17.1832 -14.5594 11.1696 2.31052 -5.57076 -17.9907 -8.10345 
-115.435 87.7979 -41.0262 -6.35999 -10.9897 -11.7282 -10.4277 3.69907 6.26872 17.13 50.3891 -15.3243 6.40552 1.85296 -0.641604 -35.6811 -30.5869 -13.3331 -2.01622 14.095 7.93044 -4.59126 27.7178 16.0785 4.52419 -23.685 -2.21368 -8.82781e-032 3.18055e-015 1.59028e-015 -81.0015 -29.2519 -62.4283 -4.22983 37.7068 -103.979 19.452 8.91768 -1.69656 23.0542 6.77398 24.3514 77.0309 -62.3355 78.8194 17.0039 63.6537 95.4219 5.53592 8.24709 -34.2113 23.7447 -22.4643 0.896958 -2.03179 30.1071 -16.2935 -14.8013 11.5707 2.39991 -6.59081 -20.188 -10.0823 
-115.373 86.8038 -41.4229 -7.35909 -12.3894 -12.8624 -11.9786 3.51939 6.88344 20.119 53.0475 -20.8611 6.04902 3.76147 -0.699611 -36.0809 -30.8288 -13.469 -1.78819 14.6969 7.18842 -3.60163 28.9159 14.409 5.12383 -24.1634 0.169396 -1.76556e-031 -6.36111e-015 -1.59028e-015 -86.2101 -30.9281 -67.6806 -5.8208 39.8573 -100.409 18.83 8.91424 -1.92798 28.9852 7.97919 23.5013 60.8895 -60.5227 61.6103 18.6102 61.6001 101.4 5.14296 8.40679 -33.1864 25.321 -22.3531 1.6686 -2.65072 32.9223 -16.1362 -15.3655 11.8204 2.52754 -7.66015 -22.1129 -12.4727 
-115.323 85.7007 -41.7824 -8.47413 -13.9188 -13.9331 -13.4378 3.83947 7.91001 23.5539 55.0772 -25.5977 6.52966 5.14555 -0.816862 -35.0828 -30.2656 -12.8523 -1.39532 15.2385 6.2582 -2.34805 30.0173 12.3096 5.67773 -24.3162 2.79849 -3.97569e-016 -6.36111e-015 -3.97569e-016 -90.6601 -32.7268 -71.929 -7.72994 41.6831 -96.8302 18.4519 8.81558 -2.70125 34.3359 8.94264 22.53 45.8126 -56.05 45.9196 17.3951 58.5468 108.741 5.04498 8.48868 -32.1148 27.0083 -22.1451 2.37912 -3.28851 35.7936 -16.2684 -16.2179 11.7592 2.66599 -8.57767 -23.4457 -14.8423 
-115.312 84.5782 -42.1166 -9.55455 -15.3742 -15.1236 -14.7401 4.4631 8.93198 25.9755 56.2886 -28.1407 8.14909 7.39112 -1.14199 -35.1409 -30.2838 -12.9829 -0.913612 15.6521 5.16365 -1.06205 30.8861 9.88928 6.04372 -24.0796 5.75261 4.96962e-016 -3.18055e-015 -1.98785e-016 -93.9875 -35.1762 -74.9436 -9.96049 43.0043 -93.6046 18.3447 8.63584 -3.91266 38.6131 9.56963 21.5179 34.9898 -48.9401 34.8121 13.9446 54.2012 116.985 5.61624 8.35557 -31.9924 28.7043 -21.7858 2.68813 -4.21697 38.4118 -16.1121 -17.1978 11.263 2.76313 -9.16392 -24.0903 -16.6727 
-115.374 83.5263 -42.4766 -10.4822 -16.614 -16.6931 -15.903 5.21987 9.83503 26.4574 56.5665 -28.0543 10.6817 11.1729 -1.80122 -38.1847 -31.9027 -15.1115 -0.464463 15.9142 4.04704 -0.0336491 31.4677 7.49897 6.15647 -23.4382 8.86661 3.97569e-016 -3.18055e-015 2.38542e-015 -96.2033 -38.5 -76.7539 -12.4449 43.8235 -90.9774 18.275 8.41069 -5.41158 41.3309 9.81196 20.5912 29.0621 -40.5696 28.7618 10.2046 49.0202 124.34 6.55455 8.0811 -32.6632 30.3037 -21.1371 2.44235 -5.6458 40.4745 -15.1019 -18.0628 10.4832 2.79038 -9.47317 -24.3461 -17.7947 
-115.541 82.6187 -42.9178 -11.2367 -17.5108 -18.8549 -16.9168 5.935 10.6782 25.0833 55.9452 -25.8571 13.5465 15.8396 -2.79449 -44.6671 -34.8719 -19.6541 -0.152012 16.0212 3.10396 0.546212 31.7411 5.55819 6.07072 -22.4685 11.8763 0 9.54166e-015 -0 -97.5123 -42.495 -77.3856 -14.776 44.2849 -89.2593 17.9631 8.20422 -6.95431 42.3806 9.71881 19.843 26.7491 -32.55 26.6712 7.4117 44.0712 129.7 7.23432 7.86161 -33.3262 31.7695 -20.1048 1.68332 -7.57 41.7598 -12.9259 -18.5588 9.75991 2.75774 -9.73989 -24.7146 -18.3258 
-115.842 81.9352 -43.4623 -11.8629 -17.946 -21.6172 -17.6668 6.42693 11.4553 22.6286 54.702 -22.3158 15.8788 19.6784 -3.78626 -52.7634 -37.7107 -25.5802 -0.00113158 15.9661 2.46342 0.666109 31.6832 4.31639 5.92303 -21.3208 14.5884 -0 -3.18055e-015 -0 -97.8612 -46.6944 -76.5884 -16.4058 44.499 -88.7647 17.3632 8.06702 -8.30094 42.1368 9.41523 19.2888 26.4657 -26.0251 27.3895 5.73949 40.3236 133.031 7.35553 7.82046 -33.4589 33.0627 -18.7078 0.548613 -9.62274 42.1558 -9.79164 -18.5281 9.24566 2.67304 -10.0398 -25.3919 -18.2034 
-116.278 81.5851 -44.0944 -12.4002 -17.8666 -24.7098 -17.9826 6.62371 12.086 19.92 53.1282 -18.0349 16.8728 21.1907 -4.2413 -59.1387 -39.3384 -30.3989 0.0728471 15.7524 2.10818 0.482417 31.3035 3.72476 5.81563 -20.1833 16.9326 -1.59028e-015 -1.27222e-014 -6.36111e-015 -96.8146 -50.596 -73.8425 -17.0306 44.4405 -89.5855 16.6437 8.00171 -9.33924 41.1685 9.02927 18.8917 27.0919 -21.4707 29.968 4.8366 38.0991 134.928 7.24779 7.85645 -33.3491 34.0301 -17.0634 -0.852445 -11.1315 41.6435 -6.30034 -17.9444 8.93782 2.53899 -10.2403 -26.2304 -17.1731 
